<?xml version="1.0" ?><!DOCTYPE svg  PUBLIC '-//W3C//DTD SVG 1.1//EN'  'http://www.w3.org/Graphics/SVG/1.1/DTD/svg11.dtd'><svg height="12.443mm" style="shape-rendering:geometricPrecision; text-rendering:geometricPrecision; image-rendering:optimizeQuality; fill-rule:evenodd; clip-rule:evenodd" version="1.1" viewBox="0 0 544 1244" width="5.444mm" xml:space="preserve" xmlns="http://www.w3.org/2000/svg" xmlns:xlink="http://www.w3.org/1999/xlink"><defs><style type="text/css">
   <![CDATA[
    .fil2 {fill:#80D010}
    .fil0 {fill:#C84C0C}
    .fil1 {fill:#FC9838}
   ]]>
  </style></defs><g id="Layer_x0020_1"><g id="_804864432"><polygon class="fil0" points="156,78 233,78 233,0 311,0 311,78 389,78 389,855 156,855 "/><rect class="fil1" height="311" width="233" x="156" y="855"/><path class="fil2" d="M0 855l544 0 0 78 0 78 -78 0 0 -78 -388 0 0 78 -78 0 0 -78 0 -78zm156 312l233 0 0 77 -233 0 0 -77zm0 -156l233 0 0 78 -233 0 0 -78z"/></g></g></svg>